<svg width="16" height="24" viewBox="0 0 16 24" fill="none" xmlns="http://www.w3.org/2000/svg">
<g clip-path="url(#clip0_357_211)">
<path fill-rule="evenodd" clip-rule="evenodd" d="M5.13408 6.18204C5.01142 6.07656 4.85459 6.01927 4.69282 6.02087L4.68626 6.02093L2.60172 6.0209C2.52312 6.03104 2.44689 6.05512 2.37663 6.09208C2.29898 6.13293 2.23015 6.18871 2.17409 6.25622C2.11804 6.32373 2.07587 6.40165 2.04999 6.48549C2.02451 6.56805 2.01533 6.65476 2.02294 6.7408C2.2378 8.70186 2.91207 10.5846 3.99105 12.2363L3.99557 12.2432C4.96701 13.7712 6.2626 15.0669 7.79061 16.0383L7.79568 16.0415C9.42956 17.1011 11.2878 17.7651 13.2228 17.9809H13.3129C13.4897 17.9809 13.6593 17.9107 13.7843 17.7856C13.9094 17.6606 13.9796 17.491 13.9796 17.3142V15.5092C13.9562 15.438 13.9445 15.3622 13.9465 15.2844C13.9505 15.1209 13.8944 14.9616 13.7886 14.8369C13.6834 14.7126 13.5363 14.6312 13.3752 14.608C12.6871 14.516 12.0115 14.3476 11.3607 14.1058L11.3584 14.1049C11.239 14.0601 11.1094 14.0504 10.9847 14.077C10.8606 14.1034 10.7466 14.1648 10.6561 14.2539L9.811 15.099C9.59879 15.3112 9.27095 15.3554 9.01007 15.2071C7.23672 14.1987 5.76842 12.7304 4.76007 10.9571C4.61172 10.6962 4.65598 10.3684 4.86819 10.1562L5.71328 9.31107C5.80233 9.22061 5.86372 9.1066 5.8902 8.98243C5.91678 8.85778 5.90708 8.72811 5.86223 8.60881L5.86134 8.60643C5.61957 7.95574 5.45115 7.28012 5.35919 6.59209C5.33615 6.43273 5.2562 6.28707 5.13408 6.18204ZM4.68331 4.68756C5.16734 4.68367 5.63641 4.85546 6.00346 5.17113C6.37143 5.48758 6.61178 5.92704 6.6797 6.4076L6.68044 6.4128C6.75914 7.00314 6.90349 7.58284 7.11085 8.14113C7.24492 8.49865 7.27385 8.88709 7.1942 9.26054C7.11445 9.6345 6.92916 9.97777 6.6603 10.2497L6.65767 10.2523L6.17961 10.7304C6.96351 11.9601 8.00703 13.0037 9.2368 13.7876L9.71486 13.3095L9.7175 13.3069C9.98939 13.038 10.3327 12.8527 10.7066 12.773C11.0801 12.6933 11.4686 12.7222 11.8262 12.8564C12.3844 13.0637 12.9641 13.2081 13.5544 13.2867L13.5594 13.2874C14.0452 13.3559 14.4888 13.6006 14.8059 13.9749C15.0721 14.2891 15.2336 14.6763 15.2714 15.0826C15.2984 15.1554 15.3129 15.2336 15.3129 15.3142V17.3142C15.3129 17.8447 15.1022 18.3534 14.7271 18.7284C14.3521 19.1035 13.8434 19.3142 13.3129 19.3142H13.1863C13.1622 19.3142 13.1382 19.3129 13.1142 19.3103C10.9601 19.0763 8.89093 18.3404 7.07272 17.1619C5.38197 16.0864 3.94812 14.6527 2.87255 12.9621C1.67909 11.134 0.933673 9.05018 0.696863 6.87988L0.695888 6.8703C0.671114 6.60823 0.698322 6.34384 0.77595 6.0923C0.853578 5.84077 0.980099 5.60703 1.14826 5.4045C1.31642 5.20196 1.5229 5.03462 1.75588 4.91206C1.98885 4.7895 2.24373 4.71414 2.50589 4.6903C2.52596 4.68848 2.54611 4.68756 2.56626 4.68756H4.68331Z" fill="#1F002A"/>
</g>
<defs>
<clipPath id="clip0_357_211">
<rect width="16" height="16" fill="white" transform="translate(0 4)"/>
</clipPath>
</defs>
</svg>
