<svg width="12" height="12" viewBox="0 0 12 12" fill="none" xmlns="http://www.w3.org/2000/svg">
<path d="M4.12256 8.88869C4.46962 9.33096 4.78548 9.79684 5.06788 10.283C5.30898 10.7402 5.40948 11.0502 5.58571 11.601C5.69376 11.9053 5.79143 11.9962 6.0014 11.9962C6.23023 11.9962 6.33404 11.8417 6.41425 11.6027C6.58081 11.0825 6.7115 10.6854 6.9177 10.3103C7.32229 9.58605 7.82503 8.94247 8.31904 8.3239C8.4528 8.14885 9.31744 7.12899 9.7067 6.32428C9.7067 6.32428 10.1851 5.4403 10.1851 4.20575C10.1851 3.05094 9.7133 2.25 9.7133 2.25L8.3549 2.61378L7.5299 4.78657L7.32583 5.08619L7.28502 5.14045L7.23076 5.20839L7.13545 5.31691L6.99932 5.45304L6.26468 6.05156L4.42807 7.112L4.12256 8.88869Z" fill="#34A853"/>
<path d="M2.22705 6.17621C2.67529 7.20009 3.53969 8.10011 4.12453 8.88996L7.23084 5.21037C7.23084 5.21037 6.79321 5.78271 5.99935 5.78271C5.11514 5.78271 4.40078 5.07661 4.40078 4.18626C4.40078 3.57571 4.76811 3.15625 4.76811 3.15625L2.65949 3.72127L2.22705 6.17621Z" fill="#FBBC04"/>
<path d="M7.26552 0.189453C8.29718 0.522095 9.18021 1.22041 9.71433 2.25018L7.23178 5.20857C7.23178 5.20857 7.5991 4.78156 7.5991 4.17479C7.5991 3.26368 6.8319 2.58306 6.00313 2.58306C5.21942 2.58306 4.76929 3.15445 4.76929 3.15445V1.29071L7.26552 0.189453Z" fill="#4285F4"/>
<path d="M2.79614 1.49642C3.41236 0.759179 4.49663 0 5.99139 0C6.7166 0 7.26298 0.190384 7.26298 0.190384L4.76699 3.15585H2.99856L2.79614 1.49642Z" fill="#1A73E8"/>
<path d="M2.22708 6.17597C2.22708 6.17597 1.8147 5.36842 1.8147 4.19852C1.8147 3.09278 2.24454 2.12623 2.79611 1.49609L4.76837 3.15577L2.22708 6.17597Z" fill="#EA4335"/>
</svg>
